<svg width="177" height="60" fill="none" xmlns="http://www.w3.org/2000/svg"><path opacity=".14" d="M166.956 34.423c-7.287-4.24-16.01-5.473-24.421-4.97-8.411.502-16.633 2.648-24.763 4.802a10.916 10.916 0 00-2.712-12.81 10.852 10.852 0 00-13.061-.336C98.503 12.18 93.23 2.512 83.945.39 76.97-1.203 69.562 2.283 64.821 7.612c-4.742 5.328-7.234 12.331-8.913 19.29a16.232 16.232 0 00-16.7-3.19 16.262 16.262 0 00-7.102 5.26 16.307 16.307 0 00-3.309 8.206c-4.156-3.99-9.041-7.757-14.725-8.382C6.915 28.014.98 33.648.107 40.52c-.98 7.742 5.075 15.415 11.595 18.765.493.259.995.495 1.52.715h151.424a71.05 71.05 0 018.646-2.466c.503-.442.969-.926 1.391-1.446 2.743-3.388 2.933-8.374 1.185-12.393-1.747-4.02-5.144-7.08-8.912-9.272z" fill="url(#paint0_linear_21_352)"/><defs><linearGradient id="paint0_linear_21_352" x1="0" y1="30" x2="177" y2="30" gradientUnits="userSpaceOnUse"><stop stop-color="#81CCE3"/><stop offset=".23" stop-color="#68C1D7"/><stop offset=".72" stop-color="#27A4B9"/><stop offset="1" stop-color="#0093A7"/></linearGradient></defs></svg>